name C:\Users\antoi\Documents\MyRepositories\upper-imu-dc\OpenSim\subject0\MA\train_motion_filt.mot
datacolumns 10
datarows 18
range 0.00000000 0.17000000
endheader 
time	clav_prot	clav_elev	scapula_abduction	scapula_elevation	scapula_upward_rot	scapula_winging	plane_elv	shoulder_elv	axial_rot	
          0.00000000	        -17.56091561	         -6.22231262	         -5.29482220	         -4.27854883	          9.46426829	          6.29353841	        -18.80767436	         17.95501923	         41.24943358	
          0.01000000	        -17.55479223	         -6.22289736	         -5.28126704	         -4.28007782	          9.46932200	          6.29127218	        -18.80558978	         18.02604744	         40.82242930	
          0.02000000	        -17.54873299	         -6.22316351	         -5.26695274	         -4.28183994	          9.47611121	          6.28848526	        -18.80525368	         18.09019791	         40.44151951	
          0.03000000	        -17.54261660	         -6.22425661	         -5.25204027	         -4.28440384	          9.48350192	          6.28581527	        -18.80267986	         18.14683440	         40.09826671	
          0.04000000	        -17.53569352	         -6.22750821	         -5.23564878	         -4.28840094	          9.49018342	          6.28387907	        -18.79922271	         18.19446289	         39.80402174	
          0.05000000	        -17.52705406	         -6.23316252	         -5.21641745	         -4.29382932	          9.49563515	          6.28270231	        -18.80159304	         18.22962564	         39.59750128	
          0.06000000	        -17.51654088	         -6.23990461	         -5.19412188	         -4.29977545	          9.50026976	          6.28170882	        -18.81657718	         18.24821200	         39.52729093	
          0.07000000	        -17.50538344	         -6.24590709	         -5.17121060	         -4.30493000	          9.50423844	          6.28049273	        -18.84351836	         18.24986757	         39.60391767	
          0.08000000	        -17.49586724	         -6.25030316	         -5.15248988	         -4.30842175	          9.50637669	          6.27950832	        -18.87372651	         18.24027108	         39.77472342	
          0.09000000	        -17.49068122	         -6.25327674	         -5.14354396	         -4.31006737	          9.50498304	          6.27978129	        -18.89754721	         18.22741763	         39.96008856	
          0.10000000	        -17.49225697	         -6.25498253	         -5.14881113	         -4.31000498	          9.49965645	          6.28196060	        -18.91081138	         18.21598885	         40.10851705	
          0.11000000	        -17.50174238	         -6.25516546	         -5.16956691	         -4.30849788	          9.49185181	          6.28584256	        -18.91474177	         18.20669076	         40.20366669	
          0.12000000	        -17.51807626	         -6.25404258	         -5.20299491	         -4.30612462	          9.48326379	          6.29087273	        -18.91013884	         18.20127194	         40.22140168	
          0.13000000	        -17.53825686	         -6.25270432	         -5.24330753	         -4.30373044	          9.47446799	          6.29666703	        -18.89417097	         18.20511934	         40.11196577	
          0.14000000	        -17.55884466	         -6.25195741	         -5.28408519	         -4.30188013	          9.46590342	          6.30268794	        -18.86487370	         18.22229291	         39.84820425	
          0.15000000	        -17.57707650	         -6.25135977	         -5.31983823	         -4.30046816	          9.45896079	          6.30788106	        -18.82551007	         18.25066468	         39.46811165	
          0.16000000	        -17.59074112	         -6.25023713	         -5.34631463	         -4.29912341	          9.45461438	          6.31132858	        -18.78135459	         18.28535690	         39.03790840	
          0.17000000	        -17.59792097	         -6.24939812	         -5.36078892	         -4.29796436	          9.45138600	          6.31327309	        -18.73459981	         18.32509433	         38.58731263	
